# xmcd CD database file
#
# Track frame offsets:
#	150
#	20652
#	52192
#	83095
#	100412
#	117632
#	148652
#	165345
#	183590
#	212250
#	239900
#	260325
#	278087
#	290400
#
# Disc length: 4282 seconds
#
# Revision: 0
# Processed by: cddbd v1.4PL0 Copyright (c) Steve Scherf et al.
# Submitted via: CDex 1.50beta10
#
DISCID=d310b80e
DTITLE=Norman Connors - Saturday night special (1-7) - You are my starship (8-14)
DYEAR=1975
DGENRE=Jazz
TTITLE0=Saturday night special
TTITLE1=Dindi
TTITLE2=Maiden voyage
TTITLE3=Valentine love
TTITLE4=Akia
TTITLE5=Skin diver
TTITLE6=Kwasi
TTITLE7=We both need each other
TTITLE8=Betcha by golly wow
TTITLE9=Bubbles
TTITLE10=You are my starship
TTITLE11=Just imagination
TTITLE12=So much love
TTITLE13=The Creator has a master plan
EXTD=YEAR: 1975
EXTT0=
EXTT1=
EXTT2=
EXTT3=
EXTT4=
EXTT5=
EXTT6=
EXTT7=
EXTT8=
EXTT9=
EXTT10=
EXTT11=
EXTT12=
EXTT13=
PLAYORDER=
